<svg version="1.0" xmlns="http://www.w3.org/2000/svg" width="300.000000pt" height="300.000000pt"
     viewBox="0 0 300.000000 300.000000" preserveAspectRatio="xMidYMid meet">
    <style>
        path { fill: #244293; }
        @media (prefers-color-scheme: light) { path { fill: #244293; } }
        @media (prefers-color-scheme: dark) { path { fill: #fef309; } }
    </style>
    <g transform="translate(0.000000,300.000000) scale(0.100000,-0.100000)">
        <path d="M1345 2646 c-232 -56 -404 -310 -366 -539 7 -39 22 -97 35 -129 l24 -59 -32 -24 c-58 -45 -150 -114 -293 -220 l-141 -105 -53 27 c-47 25 -64 28 -144 28 -81 0 -95 -3 -144 -30 -173 -95 -217 -325 -90 -468 140 -159 367 -150 487 21 28 40 44 77 53 121 13 63 12 73 -25 196 -5 17 28 45 209 180 119 88 222 164 229 169 10 7 26 0 54 -22 59 -47 144 -89 206 -102 l56 -11 0 -338 0 -337 -50 -18 c-102 -37 -185 -146 -197 -258 -12 -120 59 -245 172 -303 78 -40 184 -42 259 -6 109 54 180 164 181 282 0 56 -5 76 -35 135 -38 75 -105 135 -172 156 l-38 11 0 339 c0 275 2 338 13 338 39 0 151 48 216 91 40 28 76 49 80 47 16 -7 480 -360 490 -372 9 -11 9 -20 2 -35 -16 -29 -13 -130 4 -182 25 -74 83 -140 155 -177 61 -32 70 -34 145 -30 101 5 157 30 219 99 56 63 91 159 81 229 -9 64 -59 162 -104 203 -103 93 -264 101 -383 19 l-45 -31 -246 184 c-135 101 -248 189 -252 194 -3 6 2 25 11 43 28 53 44 128 44 203 0 325 -298 558 -615 481z m100 -298 c15 -32 33 -33 47 -3 16 36 42 28 46 -14 3 -26 7 -32 20 -28 65 21 65 21 59 1 -21 -68 -22 -64 17 -64 28 0 36 -4 36 -18 0 -11 -12 -24 -26 -31 -29 -13 -28 -31 4 -46 12 -5 22 -18 22 -27 0 -14 -8 -18 -35 -18 -39 0 -44 -13 -20 -47 20 -29 -2 -50 -31 -28 -31 24 -44 18 -44 -19 0 -46 -25 -55 -45 -16 -19 36 -30 38 -46 8 -25 -48 -49 -45 -49 8 0 38 -9 42 -46 17 -22 -14 -27 -14 -34 -2 -6 9 -4 22 5 36 22 34 18 41 -22 45 -47 4 -53 22 -14 43 39 19 39 26 0 49 -38 23 -33 40 14 44 40 3 45 15 22 46 -22 29 -1 51 28 31 34 -24 47 -19 47 20 0 27 4 35 18 35 9 0 22 -10 27 -22z"/>
    </g>
</svg>