<?xml version="1.0" standalone="no"?>
<!DOCTYPE svg PUBLIC "-//W3C//DTD SVG 20010904//EN"
 "http://www.w3.org/TR/2001/REC-SVG-20010904/DTD/svg10.dtd">
<svg version="1.0" xmlns="http://www.w3.org/2000/svg"
 width="700.000000pt" height="700.000000pt" viewBox="0 0 700.000000 700.000000"
 preserveAspectRatio="xMidYMid meet">
<metadata>
Created by potrace 1.14, written by Peter Selinger 2001-2017
</metadata>
<g transform="translate(0.000000,700.000000) scale(0.100000,-0.100000)"
fill="#000000" stroke="none">
<path d="M3319 6205 c-2 -1 -30 -6 -61 -9 -542 -62 -1002 -606 -983 -1161 4
-135 45 -304 114 -479 18 -43 30 -80 29 -81 -2 -2 -83 -63 -180 -137 -208
-157 -150 -113 -567 -424 l-336 -251 -105 53 c-58 29 -124 57 -148 62 -74 17
-349 15 -417 -3 -127 -33 -301 -163 -383 -287 -162 -246 -160 -579 6 -808 84
-115 241 -231 377 -278 166 -58 382 -42 532 39 192 104 331 281 383 488 37
147 31 229 -29 421 -12 36 -21 70 -21 77 0 22 61 82 164 164 56 43 106 83 111
87 6 5 109 82 230 172 210 156 253 188 444 328 46 34 88 62 95 62 14 0 57 -27
188 -115 157 -106 317 -171 491 -200 l37 -6 0 -788 0 -788 -77 -28 c-182 -65
-297 -161 -404 -335 -244 -398 6 -948 476 -1045 77 -16 203 -21 255 -10 14 3
41 8 60 11 44 8 162 62 218 101 196 135 322 371 322 606 0 106 -15 170 -60
265 -104 218 -260 360 -453 416 l-59 17 5 767 c2 422 7 777 11 789 6 14 19 23
44 28 120 21 332 116 499 223 160 103 152 101 210 61 37 -25 447 -332 498
-372 6 -4 93 -71 195 -149 298 -228 313 -239 368 -285 57 -48 60 -59 36 -124
-23 -66 -23 -235 1 -363 10 -49 54 -149 92 -205 80 -122 185 -209 338 -283 89
-42 90 -43 200 -43 286 1 405 43 560 200 151 152 226 326 221 515 -3 106 -21
169 -88 304 -79 157 -158 243 -289 314 -107 58 -195 77 -344 76 -169 -1 -267
-33 -433 -140 -45 -30 -85 -54 -87 -54 -7 0 -862 643 -1022 768 -162 128 -155
107 -94 253 34 82 51 144 75 274 7 37 8 247 1 295 -22 162 -42 226 -114 380
-95 202 -272 386 -482 503 -72 40 -225 94 -319 112 -73 15 -321 30 -331 20z
m49 -725 c19 -25 40 -48 47 -53 22 -12 45 3 65 44 27 53 53 66 80 39 11 -11
21 -24 21 -30 1 -5 3 -14 4 -20 1 -5 3 -20 4 -33 0 -13 7 -31 14 -41 12 -16
17 -16 90 5 42 13 79 20 83 16 4 -4 0 -26 -9 -49 -9 -24 -19 -62 -23 -85 -6
-40 -5 -43 17 -44 73 -1 123 -9 130 -20 18 -30 -2 -59 -76 -112 -36 -26 -32
-53 14 -81 36 -23 71 -61 71 -78 0 -19 -35 -38 -73 -38 -54 0 -84 -9 -91 -25
-2 -7 9 -39 25 -72 16 -33 27 -67 24 -76 -9 -23 -40 -27 -72 -10 -85 47 -84
46 -100 31 -8 -8 -17 -39 -20 -69 -7 -65 -18 -89 -41 -89 -23 0 -50 27 -82 79
-13 23 -32 41 -41 41 -9 0 -29 -19 -44 -42 -43 -66 -64 -86 -86 -81 -21 6 -26
21 -33 101 -3 29 -8 57 -11 62 -8 13 -37 5 -98 -30 l-55 -31 -16 23 c-21 29
-20 31 9 90 14 27 25 56 25 63 0 19 -30 34 -77 40 -56 7 -93 25 -93 45 0 11
25 33 66 59 76 48 76 54 -7 111 -86 59 -74 90 40 104 78 10 86 31 44 105 -44
80 -13 110 70 67 54 -27 82 -32 91 -17 3 4 8 35 12 67 4 33 11 65 17 72 18 23
50 8 85 -38z"/>
</g>
</svg>
